<svg xmlns="http://www.w3.org/2000/svg" viewBox="0 0 29 29" shape-rendering="crispEdges"><rect width="29" height="29" fill="#fff"/><path fill="#4B3621" d="M0,0h1v1h-1zM1,0h1v1h-1zM2,0h1v1h-1zM3,0h1v1h-1zM4,0h1v1h-1zM5,0h1v1h-1zM6,0h1v1h-1zM10,0h1v1h-1zM11,0h1v1h-1zM13,0h1v1h-1zM16,0h1v1h-1zM17,0h1v1h-1zM18,0h1v1h-1zM19,0h1v1h-1zM20,0h1v1h-1zM22,0h1v1h-1zM23,0h1v1h-1zM24,0h1v1h-1zM25,0h1v1h-1zM26,0h1v1h-1zM27,0h1v1h-1zM28,0h1v1h-1zM0,1h1v1h-1zM6,1h1v1h-1zM8,1h1v1h-1zM10,1h1v1h-1zM12,1h1v1h-1zM14,1h1v1h-1zM15,1h1v1h-1zM16,1h1v1h-1zM18,1h1v1h-1zM19,1h1v1h-1zM22,1h1v1h-1zM28,1h1v1h-1zM0,2h1v1h-1zM2,2h1v1h-1zM3,2h1v1h-1zM4,2h1v1h-1zM6,2h1v1h-1zM9,2h1v1h-1zM10,2h1v1h-1zM12,2h1v1h-1zM13,2h1v1h-1zM14,2h1v1h-1zM16,2h1v1h-1zM20,2h1v1h-1zM22,2h1v1h-1zM24,2h1v1h-1zM25,2h1v1h-1zM26,2h1v1h-1zM28,2h1v1h-1zM0,3h1v1h-1zM2,3h1v1h-1zM3,3h1v1h-1zM4,3h1v1h-1zM6,3h1v1h-1zM9,3h1v1h-1zM10,3h1v1h-1zM11,3h1v1h-1zM12,3h1v1h-1zM13,3h1v1h-1zM14,3h1v1h-1zM15,3h1v1h-1zM17,3h1v1h-1zM18,3h1v1h-1zM19,3h1v1h-1zM20,3h1v1h-1zM22,3h1v1h-1zM24,3h1v1h-1zM25,3h1v1h-1zM26,3h1v1h-1zM28,3h1v1h-1zM0,4h1v1h-1zM2,4h1v1h-1zM3,4h1v1h-1zM4,4h1v1h-1zM6,4h1v1h-1zM8,4h1v1h-1zM10,4h1v1h-1zM11,4h1v1h-1zM12,4h1v1h-1zM14,4h1v1h-1zM18,4h1v1h-1zM19,4h1v1h-1zM22,4h1v1h-1zM24,4h1v1h-1zM25,4h1v1h-1zM26,4h1v1h-1zM28,4h1v1h-1zM0,5h1v1h-1zM6,5h1v1h-1zM10,5h1v1h-1zM11,5h1v1h-1zM12,5h1v1h-1zM13,5h1v1h-1zM17,5h1v1h-1zM19,5h1v1h-1zM20,5h1v1h-1zM22,5h1v1h-1zM28,5h1v1h-1zM0,6h1v1h-1zM1,6h1v1h-1zM2,6h1v1h-1zM3,6h1v1h-1zM4,6h1v1h-1zM5,6h1v1h-1zM6,6h1v1h-1zM8,6h1v1h-1zM10,6h1v1h-1zM12,6h1v1h-1zM14,6h1v1h-1zM16,6h1v1h-1zM18,6h1v1h-1zM20,6h1v1h-1zM22,6h1v1h-1zM23,6h1v1h-1zM24,6h1v1h-1zM25,6h1v1h-1zM26,6h1v1h-1zM27,6h1v1h-1zM28,6h1v1h-1zM9,7h1v1h-1zM13,7h1v1h-1zM14,7h1v1h-1zM16,7h1v1h-1zM17,7h1v1h-1zM20,7h1v1h-1zM0,8h1v1h-1zM2,8h1v1h-1zM4,8h1v1h-1zM6,8h1v1h-1zM9,8h1v1h-1zM10,8h1v1h-1zM12,8h1v1h-1zM14,8h1v1h-1zM15,8h1v1h-1zM17,8h1v1h-1zM18,8h1v1h-1zM19,8h1v1h-1zM20,8h1v1h-1zM24,8h1v1h-1zM27,8h1v1h-1zM1,9h1v1h-1zM2,9h1v1h-1zM5,9h1v1h-1zM8,9h1v1h-1zM14,9h1v1h-1zM15,9h1v1h-1zM17,9h1v1h-1zM18,9h1v1h-1zM21,9h1v1h-1zM22,9h1v1h-1zM23,9h1v1h-1zM25,9h1v1h-1zM28,9h1v1h-1zM0,10h1v1h-1zM1,10h1v1h-1zM2,10h1v1h-1zM4,10h1v1h-1zM5,10h1v1h-1zM6,10h1v1h-1zM7,10h1v1h-1zM9,10h1v1h-1zM11,10h1v1h-1zM12,10h1v1h-1zM13,10h1v1h-1zM21,10h1v1h-1zM23,10h1v1h-1zM24,10h1v1h-1zM26,10h1v1h-1zM27,10h1v1h-1zM28,10h1v1h-1zM0,11h1v1h-1zM2,11h1v1h-1zM3,11h1v1h-1zM5,11h1v1h-1zM15,11h1v1h-1zM17,11h1v1h-1zM19,11h1v1h-1zM21,11h1v1h-1zM22,11h1v1h-1zM27,11h1v1h-1zM2,12h1v1h-1zM5,12h1v1h-1zM6,12h1v1h-1zM8,12h1v1h-1zM9,12h1v1h-1zM10,12h1v1h-1zM11,12h1v1h-1zM16,12h1v1h-1zM17,12h1v1h-1zM18,12h1v1h-1zM19,12h1v1h-1zM20,12h1v1h-1zM21,12h1v1h-1zM22,12h1v1h-1zM25,12h1v1h-1zM27,12h1v1h-1zM28,12h1v1h-1zM0,13h1v1h-1zM2,13h1v1h-1zM3,13h1v1h-1zM4,13h1v1h-1zM7,13h1v1h-1zM9,13h1v1h-1zM11,13h1v1h-1zM13,13h1v1h-1zM15,13h1v1h-1zM16,13h1v1h-1zM17,13h1v1h-1zM18,13h1v1h-1zM20,13h1v1h-1zM21,13h1v1h-1zM22,13h1v1h-1zM25,13h1v1h-1zM28,13h1v1h-1zM3,14h1v1h-1zM6,14h1v1h-1zM8,14h1v1h-1zM10,14h1v1h-1zM11,14h1v1h-1zM12,14h1v1h-1zM14,14h1v1h-1zM15,14h1v1h-1zM16,14h1v1h-1zM17,14h1v1h-1zM18,14h1v1h-1zM20,14h1v1h-1zM21,14h1v1h-1zM25,14h1v1h-1zM27,14h1v1h-1zM28,14h1v1h-1zM1,15h1v1h-1zM3,15h1v1h-1zM7,15h1v1h-1zM8,15h1v1h-1zM10,15h1v1h-1zM11,15h1v1h-1zM13,15h1v1h-1zM14,15h1v1h-1zM16,15h1v1h-1zM17,15h1v1h-1zM19,15h1v1h-1zM20,15h1v1h-1zM24,15h1v1h-1zM25,15h1v1h-1zM27,15h1v1h-1zM0,16h1v1h-1zM1,16h1v1h-1zM6,16h1v1h-1zM8,16h1v1h-1zM10,16h1v1h-1zM12,16h1v1h-1zM14,16h1v1h-1zM15,16h1v1h-1zM16,16h1v1h-1zM17,16h1v1h-1zM18,16h1v1h-1zM21,16h1v1h-1zM22,16h1v1h-1zM25,16h1v1h-1zM27,16h1v1h-1zM28,16h1v1h-1zM2,17h1v1h-1zM7,17h1v1h-1zM8,17h1v1h-1zM9,17h1v1h-1zM12,17h1v1h-1zM14,17h1v1h-1zM15,17h1v1h-1zM17,17h1v1h-1zM18,17h1v1h-1zM20,17h1v1h-1zM21,17h1v1h-1zM22,17h1v1h-1zM25,17h1v1h-1zM26,17h1v1h-1zM28,17h1v1h-1zM0,18h1v1h-1zM4,18h1v1h-1zM5,18h1v1h-1zM6,18h1v1h-1zM9,18h1v1h-1zM11,18h1v1h-1zM13,18h1v1h-1zM21,18h1v1h-1zM22,18h1v1h-1zM23,18h1v1h-1zM24,18h1v1h-1zM27,18h1v1h-1zM28,18h1v1h-1zM1,19h1v1h-1zM3,19h1v1h-1zM5,19h1v1h-1zM7,19h1v1h-1zM11,19h1v1h-1zM12,19h1v1h-1zM15,19h1v1h-1zM16,19h1v1h-1zM17,19h1v1h-1zM20,19h1v1h-1zM23,19h1v1h-1zM24,19h1v1h-1zM25,19h1v1h-1zM27,19h1v1h-1zM0,20h1v1h-1zM3,20h1v1h-1zM4,20h1v1h-1zM5,20h1v1h-1zM6,20h1v1h-1zM12,20h1v1h-1zM17,20h1v1h-1zM19,20h1v1h-1zM20,20h1v1h-1zM21,20h1v1h-1zM22,20h1v1h-1zM23,20h1v1h-1zM24,20h1v1h-1zM8,21h1v1h-1zM10,21h1v1h-1zM13,21h1v1h-1zM16,21h1v1h-1zM18,21h1v1h-1zM19,21h1v1h-1zM20,21h1v1h-1zM24,21h1v1h-1zM26,21h1v1h-1zM27,21h1v1h-1zM28,21h1v1h-1zM0,22h1v1h-1zM1,22h1v1h-1zM2,22h1v1h-1zM3,22h1v1h-1zM4,22h1v1h-1zM5,22h1v1h-1zM6,22h1v1h-1zM14,22h1v1h-1zM18,22h1v1h-1zM19,22h1v1h-1zM20,22h1v1h-1zM22,22h1v1h-1zM24,22h1v1h-1zM25,22h1v1h-1zM27,22h1v1h-1zM28,22h1v1h-1zM0,23h1v1h-1zM6,23h1v1h-1zM9,23h1v1h-1zM11,23h1v1h-1zM12,23h1v1h-1zM13,23h1v1h-1zM14,23h1v1h-1zM15,23h1v1h-1zM17,23h1v1h-1zM19,23h1v1h-1zM20,23h1v1h-1zM24,23h1v1h-1zM25,23h1v1h-1zM27,23h1v1h-1zM0,24h1v1h-1zM2,24h1v1h-1zM3,24h1v1h-1zM4,24h1v1h-1zM6,24h1v1h-1zM8,24h1v1h-1zM10,24h1v1h-1zM14,24h1v1h-1zM15,24h1v1h-1zM17,24h1v1h-1zM20,24h1v1h-1zM21,24h1v1h-1zM22,24h1v1h-1zM23,24h1v1h-1zM24,24h1v1h-1zM28,24h1v1h-1zM0,25h1v1h-1zM2,25h1v1h-1zM3,25h1v1h-1zM4,25h1v1h-1zM6,25h1v1h-1zM11,25h1v1h-1zM13,25h1v1h-1zM14,25h1v1h-1zM16,25h1v1h-1zM17,25h1v1h-1zM19,25h1v1h-1zM20,25h1v1h-1zM21,25h1v1h-1zM23,25h1v1h-1zM24,25h1v1h-1zM26,25h1v1h-1zM27,25h1v1h-1zM28,25h1v1h-1zM0,26h1v1h-1zM2,26h1v1h-1zM3,26h1v1h-1zM4,26h1v1h-1zM6,26h1v1h-1zM8,26h1v1h-1zM11,26h1v1h-1zM13,26h1v1h-1zM16,26h1v1h-1zM20,26h1v1h-1zM23,26h1v1h-1zM24,26h1v1h-1zM25,26h1v1h-1zM28,26h1v1h-1zM0,27h1v1h-1zM6,27h1v1h-1zM9,27h1v1h-1zM10,27h1v1h-1zM11,27h1v1h-1zM13,27h1v1h-1zM15,27h1v1h-1zM17,27h1v1h-1zM18,27h1v1h-1zM22,27h1v1h-1zM23,27h1v1h-1zM27,27h1v1h-1zM0,28h1v1h-1zM1,28h1v1h-1zM2,28h1v1h-1zM3,28h1v1h-1zM4,28h1v1h-1zM5,28h1v1h-1zM6,28h1v1h-1zM8,28h1v1h-1zM12,28h1v1h-1zM13,28h1v1h-1zM14,28h1v1h-1zM15,28h1v1h-1zM17,28h1v1h-1zM19,28h1v1h-1zM20,28h1v1h-1zM21,28h1v1h-1zM23,28h1v1h-1zM27,28h1v1h-1zM28,28h1v1h-1z"/></svg>